<svg xmlns="http://www.w3.org/2000/svg" width="24" height="24" viewBox="0 0 24 24">
    <g fill="none" fill-rule="evenodd">
        <g fill="#FFF">
            <g>
                <path d="M19.1 16.8c.497 0 .9.403.9.9s-.403.9-.9.9H4.9c-.497 0-.9-.403-.9-.9s.403-.9.9-.9h14.2zm0-5.8c.497 0 .9.403.9.9s-.403.9-.9.9H4.9c-.497 0-.9-.403-.9-.9s.403-.9.9-.9h14.2zm0-5.8c.497 0 .9.403.9.9s-.403.9-.9.9H4.9c-.497 0-.9-.403-.9-.9s.403-.9.9-.9h14.2z" transform="translate(-1274 -403) translate(1274 403)"/>
            </g>
        </g>
    </g>
</svg>
