<?xml version="1.0" encoding="iso-8859-1"?>
<!-- Generator: Adobe Illustrator 19.0.0, SVG Export Plug-In . SVG Version: 6.00 Build 0)  -->
<svg version="1.1" id="Layer_1" xmlns="http://www.w3.org/2000/svg" xmlns:xlink="http://www.w3.org/1999/xlink" x="0px" y="0px"
	 viewBox="0 0 512.001 512.001" style="enable-background:new 0 0 512.001 512.001;" xml:space="preserve">
<path style="fill:#FF328F;" d="M510.551,155.314c-8.628-61.937-58.264-112.739-120.03-122.518
	c-45.314-7.173-87.448,6.688-118.301,33.288c-9.434,8.133-22.999,8.136-32.433,0.001c-30.883-26.626-73.067-40.49-118.431-33.269
	C60.309,42.534,10.95,92.315,1.715,153.438c-6.906,45.7,7.526,88.164,34.834,118.939c4.485,5.055,203.403,201.599,203.403,201.599
	c9.565,9.5,25.009,9.473,34.541-0.059l197.115-197.538C500.944,245.745,517.108,202.389,510.551,155.314z"/>
<path style="fill:#E80D6B;" d="M510.551,155.314c-8.628-61.937-58.264-112.739-120.03-122.518
	c-24.474-3.874-48.016-1.603-69.358,5.487c4.952,0.369,9.945,0.946,14.971,1.742c73.571,11.647,132.691,72.158,142.969,145.933
	c4.873,34.978-0.789,68.231-14.22,97.159l6.724-6.739C500.944,245.745,517.108,202.389,510.551,155.314z"/>
<path style="fill:#FF73B1;" d="M87.169,265.844c-27.307-30.773-41.739-73.238-34.837-118.939
	c8.199-54.251,48.124-99.519,99.657-115.816c-9.97-0.46-20.234,0.072-30.635,1.727C60.307,42.534,10.951,92.316,1.713,153.438
	c-6.904,45.7,7.525,88.164,34.832,118.939c4.487,5.056,203.403,201.599,203.403,201.599c9.568,9.5,25.01,9.473,34.54-0.057
	l11.238-11.26C255.296,432.582,91.235,270.431,87.169,265.844z"/>
<g>
</g>
<g>
</g>
<g>
</g>
<g>
</g>
<g>
</g>
<g>
</g>
<g>
</g>
<g>
</g>
<g>
</g>
<g>
</g>
<g>
</g>
<g>
</g>
<g>
</g>
<g>
</g>
<g>
</g>
</svg>
